<svg width="89" height="95" viewBox="0 0 89 95" fill="none" xmlns="http://www.w3.org/2000/svg">
<path d="M32 33.4545C32 32.6512 32.4477 32 33 32H63C63.5522 32 64 32.6512 64 33.4545C64 34.2579 63.5522 34.9091 63 34.9091H33C32.4477 34.9091 32 34.2579 32 33.4545ZM32 48C32 47.1967 32.4477 46.5455 33 46.5455H63C63.5522 46.5455 64 47.1967 64 48C64 48.8033 63.5522 49.4545 63 49.4545H33C32.4477 49.4545 32 48.8033 32 48ZM33 61.0909C32.4477 61.0909 32 61.7423 32 62.5455C32 63.3487 32.4477 64 33 64H63C63.5522 64 64 63.3487 64 62.5455C64 61.7423 63.5522 61.0909 63 61.0909H33Z" fill="url(#paint0_linear_44_996)"/>
<defs>
<linearGradient id="paint0_linear_44_996" x1="48" y1="32" x2="48" y2="64" gradientUnits="userSpaceOnUse">
<stop stop-color="#5F78EC"/>
<stop offset="1" stop-color="#42F0B3"/>
</linearGradient>
</defs>
</svg>
