<svg width="95" height="95" viewBox="0 0 95 95" fill="none" xmlns="http://www.w3.org/2000/svg">
<path d="M41.7584 10.0221C45.0751 7.22518 49.9249 7.22518 53.2416 10.0221L79.9603 32.5533C81.9668 34.2456 83.125 36.7369 83.125 39.3619V76.2133C83.125 80.0391 80.0236 83.1404 76.1979 83.1404H62.3438C58.518 83.1404 55.4167 80.0391 55.4167 76.2133V56.3936C55.4167 55.8473 54.9737 55.404 54.4271 55.404H40.5729C40.0263 55.404 39.5833 55.8473 39.5833 56.3936V76.2133C39.5833 80.0391 36.482 83.1404 32.6562 83.1404H18.8021C14.9764 83.1404 11.875 80.0391 11.875 76.2133V39.3619C11.875 36.7369 13.033 34.2456 15.0398 32.5533L41.7584 10.0221ZM49.4139 14.5611C48.3083 13.6288 46.6917 13.6288 45.5861 14.5611L18.8674 37.0924C18.1985 37.6565 17.8125 38.4869 17.8125 39.3619V76.2133C17.8125 76.76 18.2556 77.2029 18.8021 77.2029H32.6562C33.2028 77.2029 33.6458 76.76 33.6458 76.2133V56.3936C33.6458 52.5679 36.7472 49.4665 40.5729 49.4665H54.4271C58.2528 49.4665 61.3542 52.5679 61.3542 56.3936V76.2133C61.3542 76.76 61.7971 77.2029 62.3438 77.2029H76.1979C76.7446 77.2029 77.1875 76.76 77.1875 76.2133V39.3619C77.1875 38.4869 76.8016 37.6565 76.1326 37.0924L49.4139 14.5611Z" fill="url(#paint0_linear_59_1090)"/>
<defs>
<linearGradient id="paint0_linear_59_1090" x1="47.5" y1="7.92441" x2="47.5" y2="83.1404" gradientUnits="userSpaceOnUse">
<stop stop-color="#5181E3"/>
<stop offset="1" stop-color="#3FB497"/>
</linearGradient>
</defs>
</svg>
