<svg width="54" height="54" viewBox="0 0 54 54" fill="none" xmlns="http://www.w3.org/2000/svg">
<path d="M27 0.5C12.3629 0.5 0.5 12.3629 0.5 27C0.5 41.6371 12.3629 53.5 27 53.5C41.6371 53.5 53.5 41.6371 53.5 27C53.5 12.3629 41.6371 0.5 27 0.5ZM40.426 23.2941C40.3639 23.5426 40.2189 23.9049 40.0119 24.35H40.0223L40.0016 24.3914C38.8008 26.9379 35.6746 31.948 35.6746 31.948C35.6746 31.948 35.6643 31.9377 35.6539 31.917L34.7326 33.5008H39.1424L30.7266 44.6287L32.6416 37.0617H29.1738L30.385 32.0516C29.4119 32.2793 28.2629 32.6105 26.8965 33.0453C26.8965 33.0453 25.0539 34.1219 21.5758 30.975C21.5758 30.975 19.2363 28.9254 20.5924 28.4078C21.1721 28.1904 23.3977 27.9109 25.1471 27.6832C27.5176 27.3623 28.9668 27.1967 28.9668 27.1967C28.9668 27.1967 21.6689 27.3002 19.9402 27.0414C18.2115 26.7723 16.017 23.9049 15.5408 21.3791C15.5408 21.3791 14.8162 19.992 17.0936 20.6545C19.3709 21.3066 28.8012 23.2113 28.8012 23.2113C28.8012 23.2113 16.5449 19.4434 15.7271 18.5324C14.9094 17.6215 13.3256 13.5533 13.5326 11.0482C13.5326 11.0482 13.6258 10.4271 14.2676 10.5928C14.2676 10.5928 23.3355 14.7127 29.5361 16.9797C35.7264 19.226 41.1195 20.3646 40.426 23.2941Z" fill="white"/>
</svg>
