<svg width="128" height="128" viewBox="0 0 128 128" fill="none" xmlns="http://www.w3.org/2000/svg">
<circle cx="64" cy="64" r="63" stroke="#EEECEC" stroke-width="2"/>
<path d="M75.9159 45.6022C75.2412 46.4907 75.4113 47.7603 76.2959 48.4379C81.0988 52.1172 83.9714 57.8175 83.9714 64C83.9714 74.0786 76.3821 82.3766 66.6306 83.4425L68.4472 81.6167C69.2338 80.8265 69.2338 79.5457 68.4472 78.7555C67.732 78.0371 66.6129 77.9718 65.8243 78.5597L65.5985 78.7555L60.227 84.1509C59.5118 84.869 59.4468 85.9931 60.032 86.7852L60.227 87.012L65.5985 92.4074C66.3851 93.1975 67.6605 93.1975 68.4472 92.4074C69.1621 91.6893 69.2271 90.5651 68.6422 89.7731L68.4472 89.5462L66.4321 87.5259C78.5071 86.5391 88 76.3832 88 64C88 56.5417 84.5306 49.657 78.7389 45.2203C77.8544 44.5427 76.5903 44.7137 75.9159 45.6022ZM60.5528 35.5926C59.7662 36.3827 59.7662 37.6638 60.5528 38.4539L62.5652 40.4742C50.4916 41.4626 41 51.6179 41 64C41 71.134 44.1725 77.7512 49.5427 82.2069C50.4004 82.9186 51.67 82.7972 52.3785 81.9355C53.087 81.0742 52.9661 79.7987 52.1084 79.0871C47.655 75.3921 45.0286 69.9139 45.0286 64C45.0286 53.9225 52.6166 45.6251 62.3667 44.5579L60.5528 46.3833C59.7662 47.1734 59.7662 48.4545 60.5528 49.2446C61.3395 50.0347 62.6149 50.0347 63.4015 49.2446L68.773 43.8493C69.5596 43.0591 69.5596 41.7781 68.773 40.9879L63.4015 35.5926C62.6149 34.8025 61.3395 34.8025 60.5528 35.5926Z" fill="#EEECEC"/>
</svg>
