<svg width="128" height="128" viewBox="0 0 128 128" fill="none" xmlns="http://www.w3.org/2000/svg">
<circle cx="64" cy="64" r="63" stroke="#EEECEC" stroke-width="2"/>
<g clip-path="url(#clip0_177_135)">
<path d="M45.3333 40C42.4 40 40 42.4 40 45.3333V82.6667C40 85.6 42.4 88 45.3333 88H82.6667C85.6 88 88 85.6 88 82.6667V45.3333C88 42.4 85.6 40 82.6667 40M62 46H66V49.0133C68.2133 49.0133 70 50.8 70 53.0133V59.6533L69.6267 60L72.48 64.96C73.4667 63.36 74 61.52 74 59.6267H78C78.0267 62.96 76.8267 66.1867 74.6667 68.72L80 78V82L76.5333 80L71.5733 71.4133C66.9867 74.4267 61.04 74.4267 56.4267 71.4133L51.4667 80L48 82V78L58.3733 60L58 59.6533V53.0133C58 50.8 59.7867 49.0133 62 49.0133M64 53.0133C61.76 53.0133 60.64 55.7333 62.24 57.3333C63.84 58.88 66.5333 57.7333 66.5067 55.4933C66.5067 54.1067 65.3333 53.0133 64 53.0133ZM61.3333 62.9333L58.4267 68C61.7867 70.2933 66.2133 70.2933 69.5733 68L66.6667 62.9333C65.1467 64.2933 62.8533 64.2933 61.3333 62.9333Z" fill="#EEECEC"/>
</g>
<defs>
<clipPath id="clip0_177_135">
<rect width="64" height="64" fill="white" transform="translate(32 32)"/>
</clipPath>
</defs>
</svg>
