<svg width="128" height="128" viewBox="0 0 128 128" fill="none" xmlns="http://www.w3.org/2000/svg">
<circle cx="64" cy="64" r="63" stroke="#EEECEC" stroke-width="2"/>
<g clip-path="url(#clip0_177_43)">
<path d="M45.8333 39H51.1667V44.3333H56.5V39H61.8333V44.3333H67.1667V39H72.5V44.3333H77.8333V39H83.1667V44.3333H88.5V49.6667H83.1667V55H88.5V60.3333H83.1667V65.6667H88.5V71H83.1667V76.3333H88.5V81.6667H83.1667V87H77.8333V81.6667H72.5V87H67.1667V81.6667H61.8333V87H56.5V81.6667H51.1667V87H45.8333V81.6667H40.5V76.3333H45.8333V71H40.5V65.6667H45.8333V60.3333H40.5V55H45.8333V49.6667H40.5V44.3333H45.8333V39Z" fill="#EEECEC"/>
</g>
<defs>
<clipPath id="clip0_177_43">
<rect width="64" height="64" fill="white" transform="translate(32 25)"/>
</clipPath>
</defs>
</svg>
