<svg width="28" height="32" viewBox="0 0 28 32" fill="none" xmlns="http://www.w3.org/2000/svg">
<path d="M15.024 0.351468C14.4584 -0.117156 13.5416 -0.117156 12.976 0.351468L3.32074 8.35147C2.75516 8.82009 2.75516 9.5799 3.32074 10.0485C3.88632 10.5171 4.80333 10.5171 5.36891 10.0485L12.5517 4.09705V26C12.5517 26.6627 13.2002 27.2 14 27.2C14.7998 27.2 15.4483 26.6627 15.4483 26V4.09705L22.6311 10.0485C23.1967 10.5171 24.1136 10.5171 24.6792 10.0485C25.2448 9.5799 25.2448 8.82009 24.6792 8.35147L15.024 0.351468ZM1.44828 29.6C0.648422 29.6 0 30.1373 0 30.8C0 31.4627 0.648422 32 1.44828 32H26.5517C27.3516 32 28 31.4627 28 30.8C28 30.1373 27.3516 29.6 26.5517 29.6H1.44828Z" fill="#EEECEC" fill-opacity="0.5"/>
</svg>
