<svg width="32" height="32" viewBox="0 0 32 32" fill="none" xmlns="http://www.w3.org/2000/svg">
<path d="M0 1.45455C0 0.651229 0.44772 0 1 0H31C31.5522 0 32 0.651229 32 1.45455C32 2.25786 31.5522 2.90909 31 2.90909H1C0.44772 2.90909 0 2.25786 0 1.45455ZM0 16C0 15.1967 0.44772 14.5455 1 14.5455H31C31.5522 14.5455 32 15.1967 32 16C32 16.8033 31.5522 17.4545 31 17.4545H1C0.44772 17.4545 0 16.8033 0 16ZM1 29.0909C0.44772 29.0909 0 29.7423 0 30.5455C0 31.3487 0.44772 32 1 32H31C31.5522 32 32 31.3487 32 30.5455C32 29.7423 31.5522 29.0909 31 29.0909H1Z" fill="#EEECEC"/>
</svg>
