<svg width="49" height="48" viewBox="0 0 49 48" fill="none" xmlns="http://www.w3.org/2000/svg">
<path d="M10.1 20.8C13.8333 28.2667 20.2333 34.4 27.7 38.4L33.5667 32.5333C34.3667 31.7333 35.4333 31.4667 36.2333 32C39.1667 33.0667 42.3667 33.6 45.8333 33.6C47.4333 33.6 48.5 34.6667 48.5 36.2667V45.3333C48.5 46.9333 47.4333 48 45.8333 48C20.7667 48 0.5 27.7333 0.5 2.66667C0.5 1.06667 1.83333 0 3.16667 0H12.5C14.1 0 15.1667 1.06667 15.1667 2.66667C15.1667 5.86667 15.7 9.06667 16.7667 12.2667C17.0333 13.0667 16.7667 14.1333 16.2333 14.9333L10.1 20.8ZM29.8333 0C28.2333 0 27.1667 1.06667 27.1667 2.66667C27.1667 4.26667 28.2333 5.33333 29.8333 5.33333C31.4333 5.33333 32.5 4.26667 32.5 2.66667C32.5 1.06667 31.4333 0 29.8333 0ZM37.8333 0C36.2333 0 35.1667 1.06667 35.1667 2.66667C35.1667 4.26667 36.2333 5.33333 37.8333 5.33333C39.4333 5.33333 40.5 4.26667 40.5 2.66667C40.5 1.06667 39.4333 0 37.8333 0ZM45.8333 0C44.2333 0 43.1667 1.06667 43.1667 2.66667C43.1667 4.26667 44.2333 5.33333 45.8333 5.33333C47.4333 5.33333 48.5 4.26667 48.5 2.66667C48.5 1.06667 47.4333 0 45.8333 0ZM29.8333 8C28.2333 8 27.1667 9.06667 27.1667 10.6667C27.1667 12.2667 28.2333 13.3333 29.8333 13.3333C31.4333 13.3333 32.5 12.2667 32.5 10.6667C32.5 9.06667 31.4333 8 29.8333 8ZM37.8333 8C36.2333 8 35.1667 9.06667 35.1667 10.6667C35.1667 12.2667 36.2333 13.3333 37.8333 13.3333C39.4333 13.3333 40.5 12.2667 40.5 10.6667C40.5 9.06667 39.4333 8 37.8333 8ZM45.8333 8C44.2333 8 43.1667 9.06667 43.1667 10.6667C43.1667 12.2667 44.2333 13.3333 45.8333 13.3333C47.4333 13.3333 48.5 12.2667 48.5 10.6667C48.5 9.06667 47.4333 8 45.8333 8ZM29.8333 16C28.2333 16 27.1667 17.0667 27.1667 18.6667C27.1667 20.2667 28.2333 21.3333 29.8333 21.3333C31.4333 21.3333 32.5 20.2667 32.5 18.6667C32.5 17.0667 31.4333 16 29.8333 16ZM37.8333 16C36.2333 16 35.1667 17.0667 35.1667 18.6667C35.1667 20.2667 36.2333 21.3333 37.8333 21.3333C39.4333 21.3333 40.5 20.2667 40.5 18.6667C40.5 17.0667 39.4333 16 37.8333 16ZM45.8333 16C44.2333 16 43.1667 17.0667 43.1667 18.6667C43.1667 20.2667 44.2333 21.3333 45.8333 21.3333C47.4333 21.3333 48.5 20.2667 48.5 18.6667C48.5 17.0667 47.4333 16 45.8333 16Z" fill="white"/>
</svg>
