<svg width="55" height="53" viewBox="0 0 55 53" fill="none" xmlns="http://www.w3.org/2000/svg">
<path d="M27.5006 0.333008C23.9987 0.333008 20.5311 1.02276 17.2958 2.36289C14.0604 3.70301 11.1207 5.66726 8.64447 8.14349C3.6435 13.1445 0.833984 19.9272 0.833984 26.9997C0.833984 38.7863 8.48732 48.7863 19.074 52.333C20.4073 52.5463 20.834 51.7197 20.834 50.9997C20.834 50.3863 20.834 48.7063 20.834 46.493C13.4473 48.093 11.874 42.9197 11.874 42.9197C10.6473 39.8263 8.91398 38.9997 8.91398 38.9997C6.48732 37.3463 9.10065 37.3997 9.10065 37.3997C11.7673 37.5863 13.1807 40.1463 13.1807 40.1463C15.5007 44.1997 19.4207 42.9997 20.9406 42.3597C21.1806 40.6263 21.874 39.453 22.6206 38.7863C16.7007 38.1197 10.4873 35.8263 10.4873 25.6663C10.4873 22.7063 11.5007 20.333 13.234 18.4397C12.9673 17.773 12.034 14.9997 13.5007 11.3997C13.5007 11.3997 15.7407 10.6797 20.834 14.1197C22.9406 13.533 25.234 13.2397 27.5006 13.2397C29.7673 13.2397 32.0606 13.533 34.1673 14.1197C39.2606 10.6797 41.5006 11.3997 41.5006 11.3997C42.9673 14.9997 42.034 17.773 41.7673 18.4397C43.5006 20.333 44.514 22.7063 44.514 25.6663C44.514 35.853 38.274 38.093 32.3273 38.7597C33.2873 39.5863 34.1673 41.213 34.1673 43.693C34.1673 47.2663 34.1673 50.1463 34.1673 50.9997C34.1673 51.7197 34.594 52.573 35.954 52.333C46.5406 48.7597 54.1673 38.7863 54.1673 26.9997C54.1673 23.4978 53.4776 20.0301 52.1374 16.7948C50.7973 13.5594 48.8331 10.6197 46.3568 8.14349C43.8806 5.66726 40.9409 3.70301 37.7055 2.36289C34.4702 1.02276 31.0026 0.333008 27.5006 0.333008Z" fill="white"/>
</svg>
