<svg width="55" height="44" viewBox="0 0 55 44" fill="none" xmlns="http://www.w3.org/2000/svg">
<path d="M20.834 0.666992C9.79398 0.666992 0.833984 7.84033 0.833984 16.667C0.833984 21.707 3.71398 26.1603 8.24732 29.0937L6.16732 35.3337L12.834 31.3337C15.2073 32.1603 17.8207 32.667 20.594 32.667C19.9007 30.987 19.5007 29.2003 19.5007 27.3337C19.5007 18.507 27.8473 11.3337 38.1673 11.3337C38.674 11.3337 39.1807 11.3337 39.6607 11.4137C36.9407 5.17366 29.5807 0.666992 20.834 0.666992ZM12.834 7.33366C13.5412 7.33366 14.2195 7.61461 14.7196 8.11471C15.2197 8.61481 15.5007 9.29308 15.5007 10.0003C15.5007 10.7076 15.2197 11.3858 14.7196 11.8859C14.2195 12.386 13.5412 12.667 12.834 12.667C12.1267 12.667 11.4485 12.386 10.9484 11.8859C10.4483 11.3858 10.1673 10.7076 10.1673 10.0003C10.1673 9.29308 10.4483 8.61481 10.9484 8.11471C11.4485 7.61461 12.1267 7.33366 12.834 7.33366ZM26.1673 7.33366C26.8746 7.33366 27.5528 7.61461 28.0529 8.11471C28.553 8.61481 28.834 9.29308 28.834 10.0003C28.834 10.7076 28.553 11.3858 28.0529 11.8859C27.5528 12.386 26.8746 12.667 26.1673 12.667C25.4601 12.667 24.7818 12.386 24.2817 11.8859C23.7816 11.3858 23.5007 10.7076 23.5007 10.0003C23.5007 9.29308 23.7816 8.61481 24.2817 8.11471C24.7818 7.61461 25.4601 7.33366 26.1673 7.33366ZM38.1673 14.0003C29.3407 14.0003 22.1673 19.9737 22.1673 27.3337C22.1673 34.6937 29.3407 40.667 38.1673 40.667C39.954 40.667 41.6607 40.4537 43.2607 40.0003L48.834 43.3337L47.1806 38.347C51.3673 35.9203 54.1673 31.8937 54.1673 27.3337C54.1673 19.9737 46.994 14.0003 38.1673 14.0003ZM32.834 20.667C33.5412 20.667 34.2195 20.9479 34.7196 21.448C35.2197 21.9481 35.5007 22.6264 35.5007 23.3337C35.5007 24.0409 35.2197 24.7192 34.7196 25.2193C34.2195 25.7194 33.5412 26.0003 32.834 26.0003C32.1267 26.0003 31.4485 25.7194 30.9484 25.2193C30.4483 24.7192 30.1673 24.0409 30.1673 23.3337C30.1673 22.6264 30.4483 21.9481 30.9484 21.448C31.4485 20.9479 32.1267 20.667 32.834 20.667ZM43.5007 20.667C44.2079 20.667 44.8862 20.9479 45.3863 21.448C45.8864 21.9481 46.1673 22.6264 46.1673 23.3337C46.1673 24.0409 45.8864 24.7192 45.3863 25.2193C44.8862 25.7194 44.2079 26.0003 43.5007 26.0003C42.7934 26.0003 42.1151 25.7194 41.615 25.2193C41.1149 24.7192 40.834 24.0409 40.834 23.3337C40.834 22.6264 41.1149 21.9481 41.615 21.448C42.1151 20.9479 42.7934 20.667 43.5007 20.667Z" fill="white"/>
</svg>
