<svg width="44" height="48" viewBox="0 0 44 48" fill="none" xmlns="http://www.w3.org/2000/svg">
<path d="M37.9993 22.6667V10.6667L32.3727 13.4933C32.5593 14.2933 32.666 15.12 32.666 16C32.666 21.8933 27.8927 26.6667 21.9993 26.6667C16.106 26.6667 11.3327 21.8933 11.3327 16C11.3327 15.12 11.4393 14.2933 11.626 13.4933L3.33268 9.33333L21.9993 0L40.666 9.33333V22.6667H37.9993ZM21.9993 18.6667L16.666 16C16.666 18.9333 19.066 21.3333 21.9993 21.3333C24.9327 21.3333 27.3327 18.9333 27.3327 16L21.9993 18.6667ZM29.3327 9.12L22.426 5.6L15.2527 9.25333L22.186 12.7733L29.3327 9.12ZM21.9993 29.3333C29.1193 29.3333 43.3327 32.88 43.3327 40V48H0.666016V40C0.666016 32.88 14.8793 29.3333 21.9993 29.3333ZM21.9993 34.4C13.9993 34.4 5.73268 38.2933 5.73268 40V42.9333H38.266V40C38.266 38.2933 29.9193 34.4 21.9993 34.4Z" fill="#F0075F"/>
</svg>
