<svg width="49" height="48" viewBox="0 0 49 48" fill="none" xmlns="http://www.w3.org/2000/svg">
<path d="M43.1667 0C44.5812 0 45.9377 0.561903 46.9379 1.5621C47.9381 2.56229 48.5 3.91885 48.5 5.33333V42.6667C48.5 44.0812 47.9381 45.4377 46.9379 46.4379C45.9377 47.4381 44.5812 48 43.1667 48H5.83333C4.41885 48 3.06229 47.4381 2.0621 46.4379C1.0619 45.4377 0.5 44.0812 0.5 42.6667V5.33333C0.5 3.91885 1.0619 2.56229 2.0621 1.5621C3.06229 0.561903 4.41885 0 5.83333 0H43.1667ZM41.8333 41.3333V27.2C41.8333 24.8944 40.9174 22.6832 39.2871 21.0529C37.6568 19.4226 35.4456 18.5067 33.14 18.5067C30.8733 18.5067 28.2333 19.8933 26.9533 21.9733V19.0133H19.5133V41.3333H26.9533V28.1867C26.9533 26.1333 28.6067 24.4533 30.66 24.4533C31.6501 24.4533 32.5997 24.8467 33.2999 25.5468C34 26.2469 34.3933 27.1965 34.3933 28.1867V41.3333H41.8333ZM10.8467 14.8267C12.0348 14.8267 13.1743 14.3547 14.0145 13.5145C14.8547 12.6743 15.3267 11.5348 15.3267 10.3467C15.3267 7.86667 13.3267 5.84 10.8467 5.84C9.65143 5.84 8.50514 6.31481 7.65997 7.15997C6.81481 8.00514 6.34 9.15143 6.34 10.3467C6.34 12.8267 8.36667 14.8267 10.8467 14.8267ZM14.5533 41.3333V19.0133H7.16667V41.3333H14.5533Z" fill="white"/>
</svg>
